<svg xmlns="http://www.w3.org/2000/svg" viewBox="0 0 34 45.9"><defs><style>.a,.c{fill:#4a8938;}.a,.b{stroke:#000;stroke-miterlimit:10;stroke-width:2px;}.b{fill:#fffdab;}</style></defs><title>desert</title><polygon class="a" points="24.95 36.53 17 44.48 9.05 36.53 24.95 36.53"/><path class="b" d="M238.83,46.52a16,16,0,1,1,32,0" transform="translate(-237.83 -29.52)"/><path class="b" d="M270.83,46.52a16,16,0,1,1-32,0" transform="translate(-237.83 -29.52)"/><path class="c" d="M250.54,58.57V55.65h-2.06a3.88,3.88,0,0,1-3.87-3.87v-5a2.44,2.44,0,0,1,2.44-2.44h0a2.48,2.48,0,0,1,2.4,2.49V50.6a0.17,0.17,0,0,0,.17.17h0.87v-12a4.33,4.33,0,1,1,8.67,0v5.13h1a0.41,0.41,0,0,0,.41-0.41V40.71a2.27,2.27,0,0,1,2.1-2.28,2.24,2.24,0,0,1,2.39,2.24v4.27a3.48,3.48,0,0,1-3.48,3.48h-2.37V58.57" transform="translate(-237.83 -29.52)"/></svg>