<svg xmlns="http://www.w3.org/2000/svg" viewBox="0 0 34 45.9"><defs><style>.a,.c{fill:#4a8938;}.a,.d{stroke:#000;stroke-miterlimit:10;stroke-width:2px;}.b{fill:#fffdab;}.d{fill:none;}.e{fill:#2d67c4;}</style></defs><title>fjord</title><polygon class="a" points="24.8 36.53 16.85 44.48 8.9 36.53 24.8 36.53"/><path class="b" d="M372.6,49.38a16,16,0,1,1,32,0" transform="translate(-371.75 -32.38)"/><path class="b" d="M404.6,49.38a16,16,0,1,1-32,0" transform="translate(-371.75 -32.38)"/><path class="c" d="M378.05,42.4a11.69,11.69,0,0,0,11.69,11.69c6.46,0,11.82-7,11.82-13.44l3.27,6.16-1.38,8.88-5.14,6.87-10.56,3.38-9.59-4.56L373.28,54l0.35-11.06,4.31-4.41Z" transform="translate(-371.75 -32.38)"/><path class="d" d="M372.75,49.38a16,16,0,1,1,32,0" transform="translate(-371.75 -32.38)"/><path class="e" d="M380.81,64s9.27-2,7-4.32-2.14-3.14,1.58-4.43,3.7-1.26,3.7-1.26h1s-6.54,2-5.36,4c0.75,1.25,7.29,4,4.23,5.31a39.35,39.35,0,0,1-7.61,2.07" transform="translate(-371.75 -32.38)"/><path class="d" d="M404.74,49.38a16,16,0,1,1-32,0" transform="translate(-371.75 -32.38)"/></svg>