<svg xmlns="http://www.w3.org/2000/svg" viewBox="0 0 34 45.9"><defs><style>.a,.d{fill:#fff;}.a,.e{stroke:#000;stroke-miterlimit:10;stroke-width:2px;}.b{fill:#fffdab;}.c{fill:#b6ecff;}.e{fill:none;}</style></defs><title>glacier</title><polygon class="a" points="24.8 36.53 16.85 44.48 8.9 36.53 24.8 36.53"/><circle class="b" cx="17" cy="16.81" r="16"/><polygon class="c" points="1.5 18.7 9.96 6 17 13.09 23.18 9.23 31.6 23.01 28.08 28.99 5.54 28.99 1.5 18.7"/><path class="d" d="M304.86,53.91s3.26-2,6.81,1.11c-2.68,5.07-7.44,7.83-13.58,7.83-6,0-9.51-1.31-12.26-6.13,4.63-5.81,9.59-3.62,9.59-3.62l3.62,1Z" transform="translate(-281.75 -30.01)"/><circle class="e" cx="17" cy="17" r="16"/><polygon class="d" points="3.76 17.68 9.96 8.05 17 15.12 22.18 11.24 26.72 17.68 22.91 16.12 20.74 18.99 18.91 16.99 13.91 18.99 10.49 13.75 7.25 18.99 7.25 15.99 3.76 17.68"/></svg>