<svg xmlns="http://www.w3.org/2000/svg" viewBox="0 0 34 45.9"><defs><style>.a,.c{fill:#4a8938;}.a,.b{stroke:#000;stroke-miterlimit:10;stroke-width:2px;}.b{fill:#fffdab;}</style></defs><title>grass</title><polygon class="a" points="24.95 36.53 17 44.48 9.05 36.53 24.95 36.53"/><path class="b" d="M455.83,49.52a16,16,0,1,1-16-16,16,16,0,0,1,16,16" transform="translate(-422.83 -32.52)"/><path class="c" d="M435.84,60.15s5.68-6,.86-20.2c0,0,6.2,9.23,4.07,20.2" transform="translate(-422.83 -32.52)"/><path class="c" d="M431.08,60.15s7.61-3.92,2.27-14.56c0,0,7.5,6,4,14.56" transform="translate(-422.83 -32.52)"/><path class="c" d="M448.07,60.15s-7.19-5.65-.93-15.39c0,0-6.08,4.43-4,15.39" transform="translate(-422.83 -32.52)"/><path class="c" d="M442.11,53.58c-0.28-2.93.46-7,3.46-11.69,0,0-3.06,1.75-4.29,7.41" transform="translate(-422.83 -32.52)"/></svg>