<svg xmlns="http://www.w3.org/2000/svg" viewBox="0 0 34 45.9"><defs><style>.a,.e{fill:#2d67c4;}.a,.g{stroke:#000;stroke-miterlimit:10;stroke-width:2px;}.b{fill:#fffdab;}.c{fill:#4a8938;}.d{fill:#b29777;}.f{fill:#26a4ea;}.g{fill:none;}</style></defs><title>island</title><polygon class="a" points="24.91 36.53 16.96 44.48 9.01 36.53 24.91 36.53"/><circle class="b" cx="16.96" cy="17" r="16"/><path class="c" d="M356.81,55.94c0,2.58-7.75,3.52-14.86,3.52S327,58.23,327,55.66s7.82-5.53,14.93-5.53S356.81,53.36,356.81,55.94Z" transform="translate(-325 -33.01)"/><path class="d" d="M339.91,56.76c-0.74-4.55-.87-9.42,2.58-13.65,0.1-.16-0.25-0.29-0.67-0.2a18,18,0,0,0-7,12.66" transform="translate(-325 -33.01)"/><path class="e" d="M327.5,57.11s3.67,9.19,15.8,8.85,13.33-8.88,13.33-8.88l-2-1.08h-24.2Z" transform="translate(-325 -33.01)"/><path class="f" d="M357,55.63c-1,.33-4.77-2.5-4.77-2.5-3.87,5.33-10.26.25-10.26,0.25-4.17,4.79-11.89,0-11.89,0-1.83,2.33-3.54,2.25-3.54,2.25l1,2.2s0.58,0,2.42-1.2c0,0,8,2.88,12.17-.25,0,0,6.27,3,9.94-.08a18.26,18.26,0,0,0,5,1.5V55.63Z" transform="translate(-325 -33.01)"/><circle class="g" cx="17" cy="17" r="16"/><path class="c" d="M342.25,43.09l0.34-.08,0.08,0,0,0,0.22-.05a3.14,3.14,0,0,1,1.34,1.58,8.15,8.15,0,0,1,.1,2.69,3.24,3.24,0,0,0,.77-1.34,2.81,2.81,0,0,0,0-1.64,2.3,2.3,0,0,0-1.07-1.3l-0.32-.14c4-.62,5.89,1.89,8.42,4.5a7.19,7.19,0,0,0-.9-3.28,6.15,6.15,0,0,0-2.55-2.55,5.07,5.07,0,0,0-3.7-.36,5.17,5.17,0,0,0-2.46,1.56h0l0,0v0c0.79-1.53,3.23-2.77,4.9-2.89,2-.14,3.92.7,5.82,1.2a7.19,7.19,0,0,0-2.46-2.34,6.15,6.15,0,0,0-3.5-.86,5.08,5.08,0,0,0-3.35,1.6,5.94,5.94,0,0,0-.68.92,5.18,5.18,0,0,0,0-.58,5.07,5.07,0,0,0-1.41-3.43,6.17,6.17,0,0,0-3.18-1.71,7.2,7.2,0,0,0-3.4.09c1.74,0.9,3.74,1.56,5.13,3a7.28,7.28,0,0,1,1.72,4.66,5.25,5.25,0,0,0-1.26-2.45,5.08,5.08,0,0,0-3.33-1.63,6.17,6.17,0,0,0-3.51.83,7.19,7.19,0,0,0-2.48,2.32c1.9-.49,3.83-1.31,5.83-1.15A6.6,6.6,0,0,1,341,42a2.27,2.27,0,0,0-1.28.24,2.75,2.75,0,0,0-1.16,1.16,3.24,3.24,0,0,0-.41,1.49,8,8,0,0,1,2-1.83,2.88,2.88,0,0,1,1.7-.23" transform="translate(-325 -33.01)"/></svg>