<svg xmlns="http://www.w3.org/2000/svg" viewBox="0 0 34 45.9"><defs><style>.a,.c{fill:#2d67c4;}.a,.e{stroke:#000;stroke-miterlimit:10;stroke-width:2px;}.b{fill:#fffdab;}.d{fill:#26a4ea;}.e{fill:none;}</style></defs><title>lake</title><polygon class="a" points="24.91 36.53 16.96 44.48 9.01 36.53 24.91 36.53"/><circle class="b" cx="16.96" cy="17" r="16"/><path class="c" d="M154.79,50.46s4,13,17.25,12.54,14.55-12.54,14.55-12.54L184.42,49H158Z" transform="translate(-154 -30.01)"/><path class="d" d="M186,48.63c-1,.33-2.77-2.5-2.77-2.5-3.87,5.33-8.26.25-8.26,0.25-4.17,4.79-7.9,0-7.9,0-4.37,4.83-8,0-8,0-1.83,2.33-3.54,2.25-3.54,2.25l-1.37.75L155.79,51a8.29,8.29,0,0,0,3.13-1.37,8.59,8.59,0,0,0,8.13-.21,6.67,6.67,0,0,0,8,0s4.27,3,7.94-.08a4.11,4.11,0,0,0,3,1.5V48.63Z" transform="translate(-154 -30.01)"/><circle class="e" cx="17" cy="17" r="16"/></svg>