<svg xmlns="http://www.w3.org/2000/svg" viewBox="0 0 34 45.9"><defs><style>.a,.c{fill:#b29777;}.a,.e{stroke:#000;stroke-miterlimit:10;stroke-width:2px;}.b{fill:#fffdab;}.d{fill:#d3d3d3;}.e{fill:none;}</style></defs><title>volcano</title><polygon class="a" points="24.95 36.53 17 44.48 9.05 36.53 24.95 36.53"/><circle class="b" cx="17" cy="17" r="16"/><path class="c" d="M133.08,48.62a8.82,8.82,0,0,0,2.81-.84S140,54.27,146,55.19a16,16,0,0,1-28.07.43c4-.43,8.22-4.78,9.32-8.44a16.27,16.27,0,0,0,2.63,1.48L127.44,53H132l-2.62,6.63L136,50.81l-4.37-.12Z" transform="translate(-115 -30.69)"/><path class="d" d="M135,47V43s4.73,1.17,5.64-2.67c0,0,4.22-1.42,1.14-4.67,0,0-9-9-19.86,0-3.46,2.85.68,4.67,0.68,4.67C123.52,44.17,128,43,128,43v4" transform="translate(-115 -30.69)"/><circle class="e" cx="17" cy="17" r="16"/></svg>