<svg xmlns="http://www.w3.org/2000/svg" viewBox="0 0 34 45.9"><defs><style>.a,.c{fill:#4a8938}.a,.b{stroke:#000;stroke-miterlimit:10;stroke-width:2px}.b{fill:#fffdab}</style></defs><title>desert</title><path class="a" d="M24.95 36.53L17 44.48l-7.95-7.95h15.9z"/><path class="b" d="M1 17a16 16 0 1 1 32 0M33 17a16 16 0 1 1-32 0"/><path class="c" d="M12.71 29.05v-2.92h-2.06a3.88 3.88 0 0 1-3.87-3.87v-5a2.44 2.44 0 0 1 2.44-2.44 2.48 2.48 0 0 1 2.4 2.49v3.77a.17.17 0 0 0 .17.17h.87v-12a4.335 4.335 0 1 1 8.67 0v5.13h1a.41.41 0 0 0 .41-.41v-2.78a2.27 2.27 0 0 1 2.1-2.28 2.24 2.24 0 0 1 2.39 2.24v4.27a3.48 3.48 0 0 1-3.48 3.48h-2.37v10.15"/></svg>