<svg xmlns="http://www.w3.org/2000/svg" viewBox="0 0 34 45.9"><defs><style>.a,.c{fill:#4a8938}.a,.d{stroke:#000;stroke-miterlimit:10;stroke-width:2px}.b{fill:#fffdab}.d{fill:none}.e{fill:#2d67c4}</style></defs><title>fjord</title><path class="a" d="M24.8 36.53l-7.95 7.95-7.95-7.95h15.9z"/><path class="b" d="M.85 17a16 16 0 1 1 32 0M32.85 17a16 16 0 1 1-32 0"/><path class="c" d="M6.3 10.02a11.69 11.69 0 0 0 11.69 11.69c6.46 0 11.82-7 11.82-13.44l3.27 6.16-1.38 8.88-5.14 6.87L16 33.56 6.41 29l-4.88-7.38.35-11.06 4.31-4.41z"/><path class="d" d="M1 17a16 16 0 1 1 32 0"/><path class="e" d="M9.06 31.62s9.27-2 7-4.32-2.14-3.14 1.58-4.43 3.7-1.26 3.7-1.26h1s-6.54 2-5.36 4c.75 1.25 7.29 4 4.23 5.31a39.35 39.35 0 0 1-7.61 2.07"/><path class="d" d="M32.99 17a16 16 0 1 1-32 0"/></svg>