<svg xmlns="http://www.w3.org/2000/svg" viewBox="0 0 34 45.9"><defs><style>.a,.d{fill:#fff}.a,.e{stroke:#000;stroke-miterlimit:10;stroke-width:2px}.b{fill:#fffdab}.c{fill:#b6ecff}.e{fill:none}</style></defs><title>glacier</title><path class="a" d="M24.8 36.53l-7.95 7.95-7.95-7.95h15.9z"/><circle class="b" cx="17" cy="16.81" r="16"/><path class="c" d="M1.5 18.7L9.96 6 17 13.09l6.18-3.86 8.42 13.78-3.52 5.98H5.54L1.5 18.7z"/><path class="d" d="M23.11 23.9s3.26-2 6.81 1.11c-2.68 5.07-7.44 7.83-13.58 7.83-6 0-9.51-1.31-12.26-6.13 4.63-5.81 9.59-3.62 9.59-3.62l3.62 1z"/><circle class="e" cx="17" cy="17" r="16"/><path class="d" d="M3.76 17.68l6.2-9.63L17 15.12l5.18-3.88 4.54 6.44-3.81-1.56-2.17 2.87-1.83-2-5 2-3.42-5.24-3.24 5.24v-3l-3.49 1.69z"/></svg>