<svg xmlns="http://www.w3.org/2000/svg" viewBox="0 0 34 45.9"><defs><style>.a,.c{fill:#4a8938}.a,.b{stroke:#000;stroke-miterlimit:10;stroke-width:2px}.b{fill:#fffdab}</style></defs><title>grass</title><path class="a" d="M24.95 36.53L17 44.48l-7.95-7.95h15.9z"/><path class="b" d="M33 17A16 16 0 1 1 17 1a16 16 0 0 1 16 16"/><path class="c" d="M13.01 27.63s5.68-6 .86-20.2c0 0 6.2 9.23 4.07 20.2"/><path class="c" d="M8.25 27.63s7.61-3.92 2.27-14.56c0 0 7.5 6 4 14.56M25.24 27.63s-7.19-5.65-.93-15.39c0 0-6.08 4.43-4 15.39M19.28 21.06c-.28-2.93.46-7 3.46-11.69 0 0-3.06 1.75-4.29 7.41"/></svg>