<svg xmlns="http://www.w3.org/2000/svg" viewBox="0 0 34 45.9"><defs><style>.a,.c{fill:#2d67c4}.a,.e{stroke:#000;stroke-miterlimit:10;stroke-width:2px}.b{fill:#fffdab}.d{fill:#26a4ea}.e{fill:none}</style></defs><title>lake</title><path class="a" d="M24.91 36.53l-7.95 7.95-7.95-7.95h15.9z"/><circle class="b" cx="16.96" cy="17" r="16"/><path class="c" d="M.79 20.45s4 13 17.25 12.54 14.55-12.54 14.55-12.54l-2.17-1.46H4z"/><path class="d" d="M32 18.62c-1 .33-2.77-2.5-2.77-2.5-3.87 5.33-8.26.25-8.26.25-4.17 4.79-7.9 0-7.9 0-4.37 4.83-8 0-8 0-1.83 2.33-3.54 2.25-3.54 2.25l-1.37.75 1.63 1.62a8.29 8.29 0 0 0 3.13-1.37 8.59 8.59 0 0 0 8.13-.21 6.67 6.67 0 0 0 8 0s4.27 3 7.94-.08a4.11 4.11 0 0 0 3 1.5v-2.21z"/><circle class="e" cx="17" cy="17" r="16"/></svg>