<svg xmlns="http://www.w3.org/2000/svg" viewBox="0 0 34 45.9"><defs><style>.a,.c{fill:#b29777}.a,.e{stroke:#000;stroke-miterlimit:10;stroke-width:2px}.b{fill:#fffdab}.d{fill:#d3d3d3}.e{fill:none}</style></defs><title>volcano</title><path class="a" d="M24.95 36.53L17 44.48l-7.95-7.95h15.9z"/><circle class="b" cx="17" cy="17" r="16"/><path class="c" d="M18.08 17.93a8.82 8.82 0 0 0 2.81-.84S25 23.58 31 24.5a16 16 0 0 1-28.07.43c4-.43 8.22-4.78 9.32-8.44a16.27 16.27 0 0 0 2.63 1.48l-2.44 4.34H17l-2.62 6.63L21 20.12 16.63 20z"/><path class="d" d="M20 16.31v-4s4.73 1.17 5.64-2.67c0 0 4.22-1.42 1.14-4.67 0 0-9-9-19.86 0-3.46 2.85.68 4.67.68 4.67.92 3.84 5.4 2.67 5.4 2.67v4"/><circle class="e" cx="17" cy="17" r="16"/></svg>